PathFileType	4	(X/Y/Z)	E:\Qualisys_Data\Carbon_Farble_Plate\Data\Amateur_Runner\S14\T1\S14T1V11_c3d.trc
DataRate	CameraRate	NumFrames	NumMarkers	Units	OrigDataRate	OrigDataStartFrame	OrigNumFrames
200.000000	200.000000	4	39	mm	200.000000	305	349
Frame#	Time	LSHO			RSHO			LICST			RICST			LASIS			LHEEL			RASIS			LTROC			RTROC			SACR			LTH1			LSK4			LTH2			LTH3			RHM5			LSK2			LTH4			RTH1			LTOE			RTH2			RTH3			RTH4			LLEP			RLEP			LSK1			LSK3			RSK1			LHM5			RSK2			LFT1			RSK3			RSK4			LLME			RLME			RTOE			RHEEL			RFT1			RFT2			LFT2			
		X1	Y1	Z1	X2	Y2	Z2	X3	Y3	Z3	X4	Y4	Z4	X5	Y5	Z5	X6	Y6	Z6	X7	Y7	Z7	X8	Y8	Z8	X9	Y9	Z9	X10	Y10	Z10	X11	Y11	Z11	X12	Y12	Z12	X13	Y13	Z13	X14	Y14	Z14	X15	Y15	Z15	X16	Y16	Z16	X17	Y17	Z17	X18	Y18	Z18	X19	Y19	Z19	X20	Y20	Z20	X21	Y21	Z21	X22	Y22	Z22	X23	Y23	Z23	X24	Y24	Z24	X25	Y25	Z25	X26	Y26	Z26	X27	Y27	Z27	X28	Y28	Z28	X29	Y29	Z29	X30	Y30	Z30	X31	Y31	Z31	X32	Y32	Z32	X33	Y33	Z33	X34	Y34	Z34	X35	Y35	Z35	X36	Y36	Z36	X37	Y37	Z37	X38	Y38	Z38	X39	Y39	Z39	

306	1.525	2126.112548828125	1463.53369140625	-539.693359375	2066.90966796875	1469.058471679688	-247.8521118164062	2062.685546875	1016.678833007812	-520.8556518554688	2084.0205078125	1026.489135742188	-246.3641510009766	2101.001953125	964.2129516601562	-496.0239562988281	1586.461669921875	256.8726196289062	-411.0177307128906	2110.26708984375	982.1755981445312	-265.2073364257812	1935.661499023438	912.4606323242188	-528.3983764648438	1974.780517578125	929.7828979492188	-209.9387512207031	1936.48095703125	1029.561157226562	-385.8448486328125	1948.775512695312	683.1107177734375	-540.6222534179688	1702.232788085938	396.3992309570312	-486.6086120605469	1879.219116210938	705.68212890625	-510.9642333984375	1929.312744140625	587.2079467773438	-519.3867797851562	2280.642822265625	95.4111328125	-232.5951843261719	1760.514038085938	475.9117431640625	-502.2712707519531	1856.383544921875	611.0675048828125	-495.4106750488281	2185.988525390625	730.48779296875	-222.8059844970703	1704.614501953125	33.19723129272461	-448.2445373535156	2113.72900390625	703.6956176757812	-212.8842620849609	2223.59130859375	640.9520874023438	-250.4340972900391	2148.124267578125	608.8023681640625	-231.3338317871094	1874.607788085938	530.9960327148438	-508.2056884765625	2188.814697265625	548.65625	-239.7884521484375	1825.9970703125	427.1435241699219	-510.34423828125	1764.334106445312	346.1299743652344	-499.2568359375	2209.36962890625	425.2210998535156	-233.3299865722656	1647.429809570312	76.8299789428711	-500.2509155273438	2123.18896484375	427.8777160644531	-231.9236755371094	1581.713500976562	235.4024200439453	-379.0093994140625	2199.475830078125	322.2941284179688	-245.1944580078125	2120.450439453125	331.9329833984375	-242.7880249023438	1629.404907226562	226.3345794677734	-472.4473266601562	2147.188232421875	149.3355712890625	-262.4945373535156	2352.57763671875	113.1426544189453	-292.7233581542969	2092.9072265625	116.571159362793	-317.5692138671875	2111.356689453125	91.03057098388672	-347.4084777832031	2097.3212890625	94.65151214599608	-290.1482238769531	1563.47412109375	240.5282287597656	-432.3991088867188
307	1.53	2141.40478515625	1465.662963867188	-538.4096069335938	2081.15087890625	1471.014404296875	-247.1666107177734	2079.248291015625	1018.887512207031	-520.5703735351562	2100.581298828125	1028.792602539062	-246.495849609375	2117.292724609375	966.0604248046876	-495.611083984375	1603.41259765625	264.4322509765625	-411.9257507324219	2126.681884765625	984.0554809570312	-264.9462890625	1951.552368164062	915.1483764648438	-528.7352294921875	1990.951904296875	931.4519653320312	-209.8612060546875	1952.647705078125	1031.296630859375	-385.5685424804688	1962.572509765625	686.160400390625	-541.2267456054688	1714.424194335938	401.0762329101562	-486.7546081542969	1893.498901367188	709.3613891601562	-510.5907287597656	1942.991943359375	590.36376953125	-520.368408203125	2310.931884765625	97.97991943359376	-232.7463073730469	1773.171630859375	480.0687561035156	-502.0348205566406	1870.47509765625	614.4853515625	-495.6338195800781	2199.729248046875	730.608642578125	-222.7891845703125	1708.185424804688	31.76088333129883	-448.0865783691406	2127.33154296875	704.2489624023438	-213.6468353271484	2236.84375	640.5090942382812	-250.0835418701172	2161.178466796875	609.457763671875	-231.2976989746094	1887.634887695312	534.2623291015625	-508.5812377929688	2202.132568359375	548.4292602539062	-239.6213226318359	1838.420166015625	431.315185546875	-511.2952270507812	1775.575805664062	350.2262268066406	-500.4791259765625	2226.266845703125	425.6585388183594	-233.0011596679688	1652.392700195312	80.62310791015625	-500.3299255371094	2140.51904296875	425.0929565429688	-231.5415954589844	1593.7666015625	242.7769470214844	-380.280517578125	2220.743408203125	322.4954833984375	-244.2893218994141	2141.4521484375	328.5949096679688	-243.5932159423828	1640.52392578125	232.0688934326172	-473.5469665527344	2175.50048828125	147.2551879882812	-262.745849609375	2382.45068359375	119.5157012939453	-292.9761047363281	2122.873046875	112.2805786132812	-317.7993469238281	2142.43115234375	87.38682556152344	-347.3947143554688	2127.938720703125	89.72715759277344	-290.9407958984375	1575.88818359375	248.5674743652344	-433.3507385253906
308	1.535	2156.68408203125	1467.47119140625	-537.1204833984375	2095.32080078125	1472.706298828125	-246.5050201416016	2095.7587890625	1020.706237792969	-520.226318359375	2117.018310546875	1029.297119140625	-246.2837829589844	2133.565185546875	968.004150390625	-495.5531005859375	1616.240844726562	270.9877319335938	-412.73779296875	2142.73876953125	985.6176147460938	-265.0485534667969	1966.537475585938	917.84814453125	-529.4501342773438	2006.977661132812	932.8192138671876	-209.6356353759766	1968.609619140625	1032.999633789062	-385.6916809082031	1977.329833984375	688.9141235351562	-541.2109375	1726.672241210938	405.5228576660156	-486.6298828125	1908.610473632812	712.1053466796875	-510.1230773925781	1957.008911132812	593.0499877929688	-520.7821655273438	2340.750732421875	101.1578521728516	-233.1649780273438	1786.6005859375	484.2313537597656	-501.4700622558594	1884.705810546875	617.5737915039062	-495.5625610351562	2213.549072265625	730.0411376953125	-222.4678192138672	1712.116943359375	31.91393089294434	-448.8536987304688	2141.163818359375	704.7695922851562	-213.0907592773438	2250.0673828125	639.7517700195312	-249.5867156982422	2174.2626953125	609.2816772460938	-231.0315856933594	1901.178466796875	537.6202392578125	-509.0411987304688	2215.300048828125	547.8754272460938	-239.742431640625	1851.099487304688	434.4531860351562	-512.0523681640625	1787.603393554688	354.3451843261719	-501.1034545898438	2243.361572265625	425.6570129394531	-232.5505065917969	1658.502075195312	84.60224151611328	-500.7468872070312	2157.3291015625	421.9147033691406	-232.2461853027344	1605.800170898438	249.8076629638672	-381.0032348632812	2241.185791015625	322.4271850585938	-244.2156066894531	2162.04541015625	325.831298828125	-243.3660125732422	1651.729370117188	237.5918121337891	-474.330078125	2203.267822265625	145.2234191894531	-263.1968078613281	2411.454833984375	126.3227386474609	-293.082763671875	2152.533203125	108.8702926635742	-318.169189453125	2172.78076171875	85.18069458007812	-348.5905151367188	2158.23095703125	86.09169006347656	-291.4696960449219	1587.977294921875	256.4231872558594	-434.033447265625
309	1.54	2171.693115234375	1468.959594726562	-536.125732421875	2109.163818359375	1474.06005859375	-246.0549774169922	2112.18115234375	1022.228698730469	-519.6646728515625	2132.42626953125	1030.685424804688	-246.4001770019531	2149.53955078125	969.2975463867188	-495.0581970214844	1628.370361328125	277.4462585449219	-413.3597717285156	2158.90673828125	986.5579833984376	-265.0570983886719	1982.458862304688	919.6082153320312	-529.5059814453125	2022.369384765625	933.2565307617188	-210.5345153808594	1984.886596679688	1034.268432617188	-385.6661682128906	1992.31494140625	691.09033203125	-541.1846923828125	1739.697265625	409.8815307617188	-486.8218383789062	1923.512939453125	714.5327758789062	-510.04443359375	1971.288696289062	595.3040771484375	-521.1995849609375	2369.6220703125	103.9771499633789	-232.8546295166016	1799.859252929688	487.9716796875	-502.301513671875	1899.282104492188	619.943359375	-495.2934265136719	2227.652099609375	729.080810546875	-222.2473754882812	1716.391357421875	35.61684799194336	-450.5200500488281	2154.921630859375	704.4060668945312	-212.6899261474609	2263.384765625	638.5414428710938	-249.212646484375	2186.777587890625	608.4544677734375	-230.0234832763672	1915.226318359375	540.033447265625	-509.4685363769531	2228.39501953125	546.9373168945312	-239.4002532958984	1863.92236328125	437.3901977539062	-512.4420776367188	1799.914672851562	358.2257995605469	-501.81982421875	2260.0556640625	425.4591674804688	-232.3054504394531	1664.305419921875	90.1167221069336	-502.0233459472656	2173.9970703125	418.8782043457031	-232.3971099853516	1617.717529296875	255.8784942626953	-381.6203308105469	2261.429443359375	322.3396911621094	-243.8662872314453	2182.443359375	322.766845703125	-244.2163238525391	1662.988647460938	243.2342376708984	-474.86962890625	2230.583740234375	143.4259033203125	-263.4635009765625	2439.577392578125	132.3789215087891	-292.5359191894531	2181.45263671875	105.5811767578125	-319.0408325195312	2202.719482421875	82.21099090576172	-348.9073791503906	2187.89990234375	82.5556869506836	-292.2492065429688	1599.846801757812	263.4150390625	-434.2997131347656
